<?xml version="1.0" encoding="UTF-8" standalone="no"?>
<svg
   xmlns:dc="http://purl.org/dc/elements/1.1/"
   xmlns:cc="http://creativecommons.org/ns#"
   xmlns:rdf="http://www.w3.org/1999/02/22-rdf-syntax-ns#"
   xmlns:svg="http://www.w3.org/2000/svg"
   xmlns="http://www.w3.org/2000/svg"
   xmlns:sodipodi="http://sodipodi.sourceforge.net/DTD/sodipodi-0.dtd"
   xmlns:inkscape="http://www.inkscape.org/namespaces/inkscape"
   inkscape:export-ydpi="22.571882"
   inkscape:export-xdpi="22.571882"
   inkscape:export-filename="/home/fred/software/work/n2a/N2A/logo/N2A icon.png"
   sodipodi:docname="Icon.svg"
   inkscape:version="1.0rc1 (09960d6f05, 2020-04-09)"
   xml:space="preserve"
   enable-background="new 0 0 792 612"
   viewBox="0 0 157.15305 157.15305"
   height="157.15305"
   width="157.15305"
   y="0px"
   x="0px"
   id="Layer_1"
   version="1.1"><metadata
     id="metadata3799"><rdf:RDF><cc:Work
         rdf:about=""><dc:format>image/svg+xml</dc:format><dc:type
           rdf:resource="http://purl.org/dc/dcmitype/StillImage" /><dc:title></dc:title></cc:Work></rdf:RDF></metadata><defs
     id="defs3797" /><sodipodi:namedview
     lock-margins="false"
     inkscape:document-rotation="0"
     fit-margin-bottom="0"
     fit-margin-right="0"
     fit-margin-left="0"
     fit-margin-top="0"
     inkscape:current-layer="g3421"
     inkscape:window-maximized="1"
     inkscape:window-y="27"
     inkscape:window-x="0"
     inkscape:cy="78.1426"
     inkscape:cx="74.273578"
     inkscape:zoom="6.2745098"
     showgrid="false"
     id="namedview3795"
     inkscape:window-height="1136"
     inkscape:window-width="1920"
     inkscape:pageshadow="2"
     inkscape:pageopacity="0"
     guidetolerance="10"
     gridtolerance="10"
     objecttolerance="10"
     borderopacity="1"
     bordercolor="#666666"
     pagecolor="#ffffff" /><g
     transform="translate(-275.67202,-153.27953)"
     id="g3421"><g
       transform="translate(-10.2844,-6.112803)"
       id="g3433"><path
         sodipodi:nodetypes="cccccccccsccccc"
         style="fill:#574a9e"
         inkscape:connector-curvature="0"
         id="path3435"
         d="m 418.46069,214.00644 c -4.20822,-0.0369 -10.52669,1.26656 -14.71669,6.70556 -3.826,4.967 2.345,9.475 2.784,13.235 0.698,5.939 -1.435,9.141 -4.176,12.22 -3.983,4.546 -9.393,4.67 -14.473,3.068 -5.488,-1.739 -9.334,-4.549 -12.905,-8.828 -3.02,-3.879 -5.086,-8.494 -7.282,-12.908 -1.647,-3.611 -3.699,-6.891 -4.249,-10.635 -0.411,-2.542 -1.373,-5.752 -0.688,-8.293 1.237,-5.217 4.806,-7.224 9.748,-7.224 4.532,0 6.588,2.273 9.887,4.815 3.155,2.408 8.625,4.045 12.468,2.841 3.297,-1.069 7.082,-3.403 9.57,-5.677 1.358,-1.244 4.67966,-5.34841 4.67966,-5.34841 z" /></g><path
       d="m 388.91813,291.90555 -69.33919,0 -34.66959,-60.0495 34.66959,-60.0495 69.33919,0 34.66959,60.0495 z"
       sodipodi:type="star"
       style="fill:none;fill-opacity:1;stroke:#574a9e;stroke-width:9.59997;stroke-miterlimit:4;stroke-dasharray:none;stroke-opacity:1"
       id="path2338"
       sodipodi:sides="6"
       sodipodi:cx="354.24854"
       sodipodi:cy="231.85605"
       sodipodi:r1="69.339188"
       sodipodi:r2="60.049507"
       sodipodi:arg1="1.0471976"
       sodipodi:arg2="1.5707963"
       inkscape:flatsided="true"
       inkscape:rounded="0"
       inkscape:randomized="0"
       inkscape:export-xdpi="22.571882"
       inkscape:export-ydpi="22.571882" /><g
       transform="translate(-10.2844,-6.112803)"
       id="g3429"><path
         sodipodi:nodetypes="ccccsccccccccccc"
         style="fill:#d68f28"
         inkscape:connector-curvature="0"
         id="path3431"
         d="m 313.96722,279.43394 c 2.96485,-2.67247 8.53178,-7.13894 11.49678,-9.75794 2.448,-2.207 5.025,-4.968 8.118,-6.07 3.607,-1.241 9.278,-1.104 12.243,1.38 3.093,2.621 5.024,4.966 9.277,4.966 4.639,0 7.989,-2.068 9.149,-7.449 0.644,-2.622 -0.257,-5.931 -0.643,-8.552 -0.517,-3.861 -0.903,-8 -2.451,-11.723 -2.062,-4.553 -5.541,-8.553 -8.375,-12.553 -3.352,-4.413 -6.958,-7.312 -12.113,-9.103 -4.768,-1.656 -13.402,-1.38 -17.137,3.31 -2.578,3.174 -0.129,8.553 1.676,11.584 1.932,3.313 1.803,8.278 -0.516,11.449 -2.191,3.174 -6.314,6.207 -9.536,8.001 -2.707,1.379 -9.07545,4.27521 -12.39971,5.23845 z" /></g><path
       inkscape:export-ydpi="22.571882"
       inkscape:export-xdpi="22.571882"
       inkscape:randomized="0"
       inkscape:rounded="0"
       inkscape:flatsided="true"
       sodipodi:arg2="1.5707963"
       sodipodi:arg1="1.0471976"
       sodipodi:r2="64.849274"
       sodipodi:r1="74.881477"
       sodipodi:cy="231.85605"
       sodipodi:cx="354.24854"
       sodipodi:sides="6"
       id="path2254"
       style="fill:none;fill-opacity:1;stroke:#d68f28;stroke-width:6.4;stroke-miterlimit:4;stroke-dasharray:none;stroke-opacity:1"
       sodipodi:type="star"
       d="m 391.68927,296.70531 -74.88148,0 -37.44073,-64.84927 37.44074,-64.84925 74.88148,0 37.44073,64.84926 z" /></g></svg>
