<?xml version="1.0" encoding="utf-8"?>
<!-- Generator: Adobe Illustrator 15.0.0, SVG Export Plug-In . SVG Version: 6.00 Build 0)  -->
<!DOCTYPE svg PUBLIC "-//W3C//DTD SVG 1.1//EN" "http://www.w3.org/Graphics/SVG/1.1/DTD/svg11.dtd">
<svg version="1.1" id="Layer_1" xmlns="http://www.w3.org/2000/svg" xmlns:xlink="http://www.w3.org/1999/xlink" x="0px" y="0px"
	 width="792px" height="612px" viewBox="0 0 792 612" enable-background="new 0 0 792 612" xml:space="preserve">
<g>
	<polygon fill="#D68F28" points="325.327,306 286.038,237.951 325.327,169.901 403.904,169.901 443.193,237.951 403.904,306 	"/>
	<polyline fill="#574A9E" points="315.817,276.831 328.992,299.65 400.237,299.65 435.858,237.951 400.237,176.251 328.992,176.251 
		293.37,237.951 306.895,261.373 	"/>
	<polyline fill="#FFFFFF" points="413.973,212.999 428.38,237.951 396.498,293.172 332.731,293.172 300.851,237.951 
		332.731,182.728 396.498,182.728 406.496,200.045 	"/>
	<g>
		<path fill="#D68F28" d="M315.03,278.353c2.834-2.618,7.469-6.058,10.434-8.677c2.448-2.207,5.025-4.968,8.118-6.07
			c3.607-1.241,9.278-1.104,12.243,1.38c3.093,2.621,5.024,4.966,9.277,4.966c4.639,0,7.989-2.068,9.149-7.449
			c0.644-2.622-0.257-5.931-0.643-8.552c-0.517-3.861-0.903-8-2.451-11.723c-2.062-4.553-5.541-8.553-8.375-12.553
			c-3.352-4.413-6.958-7.312-12.113-9.103c-4.768-1.656-13.402-1.38-17.137,3.31c-2.578,3.174-0.129,8.553,1.676,11.584
			c1.932,3.313,1.803,8.278-0.516,11.449c-2.191,3.174-6.314,6.207-9.536,8.001c-2.707,1.379-7.547,3.776-10.706,4.319
			L315.03,278.353z"/>
	</g>
	<g>
		<path fill="#574A9E" d="M416.461,214.171c-4.1-0.389-8.527,1.102-12.717,6.541c-3.826,4.967,2.345,9.475,2.784,13.235
			c0.698,5.939-1.435,9.141-4.176,12.22c-3.983,4.546-9.393,4.67-14.473,3.068c-5.488-1.739-9.334-4.549-12.905-8.828
			c-3.02-3.879-5.086-8.494-7.282-12.908c-1.647-3.611-3.699-6.891-4.249-10.635c-0.411-2.542-1.373-5.752-0.688-8.293
			c1.237-5.217,4.806-7.224,9.748-7.224c4.532,0,6.588,2.273,9.887,4.815c3.155,2.408,8.625,4.045,12.468,2.841
			c3.297-1.069,7.082-3.403,9.57-5.677c1.358-1.244,2.913-4.511,2.913-4.511L416.461,214.171z"/>
	</g>
	<text transform="matrix(1 0 0 1 330.8394 229.9829)" font-family="'Agenda-Bold'" font-size="49.022">N</text>
	<g>
		<text transform="matrix(1 0 0 1 365.145 279.98)" font-family="'Agenda-Bold'" font-size="49.022">A</text>
	</g>
	<g>
		<g>
			<g enable-background="new    ">
				<g>
					<polygon fill="#AD1927" points="377.006,248.334 378.206,246.408 378.196,251.708 377.002,250.48 					"/>
				</g>
				<g>
					<polygon fill="#96121E" points="370.267,247.523 369.113,246.896 377.051,245.78 378.206,246.408 					"/>
				</g>
				<g>
					<polygon fill="#AD1927" points="359.644,253.525 359.646,251.831 360.841,252.125 360.842,251.599 					"/>
				</g>
				<g>
					<polygon fill="#B81D2B" points="367.219,249.71 370.267,247.523 378.206,246.408 377.006,248.334 					"/>
				</g>
				<g>
					<polygon fill="#9C1421" points="377.002,250.48 378.196,251.708 360.797,254.153 362.526,252.515 					"/>
				</g>
				<g>
					<polygon fill="#7C0612" points="360.797,254.153 359.644,253.525 359.646,251.831 360.801,252.458 					"/>
				</g>
				<g enable-background="new    ">
					<defs>
						<path id="SVGID_1_" enable-background="new    " d="M368.195,230.134l1.154,0.628c0.211,0.115,0.408,0.258,0.588,0.428
							c0.696,0.654,1.046,1.651,1.044,2.982c-0.004,1.885-0.986,4.513-2.946,7.883c-1.96,3.378-4.369,6.846-7.234,10.404
							l-1.154-0.627c2.865-3.558,5.274-7.026,7.234-10.404c1.96-3.371,2.942-5.998,2.946-7.883c0.002-1.332-0.348-2.328-1.044-2.982
							C368.603,230.392,368.407,230.249,368.195,230.134z"/>
					</defs>
					<clipPath id="SVGID_2_">
						<use xlink:href="#SVGID_1_"  overflow="visible"/>
					</clipPath>
					<g clip-path="url(#SVGID_2_)" enable-background="new    ">
						<path fill="#850B17" d="M360.801,252.458l-1.154-0.627c1.354-1.682,2.606-3.343,3.758-4.984l1.154,0.628
							C363.407,249.116,362.155,250.777,360.801,252.458"/>
						<path fill="#820915" d="M364.559,247.475l-1.154-0.628c1.284-1.832,2.443-3.638,3.477-5.42c0.25-0.429,0.483-0.846,0.701-1.25
							l1.154,0.628c-0.218,0.405-0.452,0.821-0.701,1.25C367.001,243.836,365.843,245.643,364.559,247.475"/>
						<path fill="#800814" d="M368.736,240.804l-1.154-0.628c0.657-1.222,1.17-2.334,1.539-3.336l1.154,0.628
							C369.906,238.47,369.394,239.583,368.736,240.804"/>
						<path fill="#7D0713" d="M370.275,237.468l-1.154-0.628c0.469-1.276,0.705-2.375,0.707-3.296
							c0.002-1.332-0.348-2.328-1.044-2.982c-0.181-0.17-0.376-0.313-0.588-0.428l1.154,0.628c0.211,0.115,0.408,0.258,0.588,0.428
							c0.696,0.654,1.046,1.651,1.044,2.982C370.979,235.093,370.744,236.191,370.275,237.468"/>
					</g>
				</g>
				<g enable-background="new    ">
					<defs>
						<path id="SVGID_3_" enable-background="new    " d="M362.694,231.774c0.239-0.449,0.333-0.728,0.404-1.196
							c-0.009,0.063,0.604-0.258,1.237-0.583c0.96-0.498,1.803-0.935,3.093-0.981c2.046-0.467,2.817,0.125,3.81,1.059
							c1.002,0.944,1.651,1.741,1.47,4.037c-0.011,2.319-0.778,5.037-3.201,8.806c-2.012,3.468-4.357,6.984-6.98,10.124
							l-1.725-0.582c2.865-3.558,5.274-7.025,7.234-10.404c1.96-3.371,2.942-5.998,2.946-7.883c0.002-1.331-0.348-2.328-1.044-2.982
							c-0.695-0.655-1.624-0.904-2.777-0.742c-0.937,0.132-1.811,0.41-2.612,0.825c-0.809,0.417-1.643,0.975-2.501,1.674
							L362.694,231.774z"/>
					</defs>
					<clipPath id="SVGID_4_">
						<use xlink:href="#SVGID_3_"  overflow="visible"/>
					</clipPath>
					<g clip-path="url(#SVGID_4_)" enable-background="new    ">
						<path fill="#CD6C5D" d="M362.525,253.04l-1.725-0.582c0.131-0.162,0.261-0.325,0.39-0.487l1.692,0.636
							C362.764,252.752,362.645,252.897,362.525,253.04"/>
						<path fill="#CC6859" d="M362.883,252.607l-1.692-0.636c0.408-0.513,0.807-1.024,1.195-1.533l1.605,0.772
							C363.628,251.683,363.258,252.149,362.883,252.607"/>
						<path fill="#CB6455" d="M363.991,251.211l-1.605-0.772c0.519-0.679,1.021-1.354,1.506-2.027l1.521,0.88
							C364.95,249.94,364.476,250.581,363.991,251.211"/>
						<path fill="#CA5F51" d="M365.413,249.292l-1.521-0.88c0.588-0.816,1.152-1.626,1.691-2.432l1.465,0.922
							C366.52,247.707,365.975,248.505,365.413,249.292"/>
						<path fill="#C9594D" d="M367.048,246.901l-1.465-0.922c0.532-0.796,1.041-1.587,1.524-2.374l1.456,0.898
							C368.075,245.306,367.57,246.106,367.048,246.901"/>
						<path fill="#C75348" d="M368.563,244.504l-1.456-0.898c0.303-0.492,0.596-0.981,0.88-1.469l1.469,0.864
							C369.166,243.501,368.868,244.003,368.563,244.504"/>
						<path fill="#C9594D" d="M369.457,243.001l-1.469-0.864c0.016-0.027,0.032-0.055,0.048-0.083
							c0.014-0.024,0.027-0.047,0.042-0.071l1.48,0.854c-0.017,0.026-0.034,0.053-0.051,0.079
							C369.49,242.944,369.473,242.973,369.457,243.001"/>
						<path fill="#C75348" d="M369.557,242.837l-1.48-0.854c0.155-0.267,0.303-0.529,0.445-0.787l1.576,0.765
							C369.928,242.247,369.748,242.538,369.557,242.837"/>
						<path fill="#C54B42" d="M370.098,241.961l-1.576-0.765c0.149-0.269,0.291-0.532,0.425-0.791l1.652,0.683
							C370.443,241.372,370.276,241.663,370.098,241.961"/>
						<path fill="#C33F3B" d="M370.599,241.088l-1.652-0.683c0.138-0.264,0.269-0.522,0.393-0.775l1.707,0.607
							C370.908,240.514,370.759,240.797,370.599,241.088"/>
						<path fill="#BE1E2D" d="M371.047,240.237l-1.707-0.607c0.126-0.258,0.245-0.511,0.357-0.758l1.743,0.536
							C371.319,239.678,371.188,239.954,371.047,240.237"/>
						<path fill="#BC1D2C" d="M371.44,239.408l-1.743-0.536c0.109-0.241,0.21-0.477,0.306-0.707l1.762,0.471
							C371.666,238.888,371.558,239.145,371.44,239.408"/>
						<path fill="#B91D2B" d="M371.765,238.636l-1.762-0.471c0.093-0.225,0.179-0.446,0.259-0.661l1.769,0.409
							C371.95,238.149,371.862,238.39,371.765,238.636"/>
						<path fill="#B61C2A" d="M372.031,237.913l-1.769-0.409c0.077-0.208,0.148-0.412,0.212-0.611l1.767,0.347
							C372.179,237.46,372.108,237.684,372.031,237.913"/>
						<path fill="#B31B29" d="M372.241,237.24l-1.767-0.347c0.064-0.195,0.121-0.386,0.173-0.572l1.759,0.284
							C372.358,236.813,372.303,237.025,372.241,237.24"/>
						<path fill="#B11B28" d="M372.406,236.605l-1.759-0.284c0.051-0.186,0.097-0.367,0.136-0.543l1.749,0.217
							C372.497,236.195,372.455,236.398,372.406,236.605"/>
						<path fill="#AE1A27" d="M372.532,235.996l-1.749-0.217c0.04-0.179,0.074-0.354,0.102-0.523l1.738,0.143
							C372.599,235.594,372.569,235.793,372.532,235.996"/>
						<path fill="#AB1926" d="M372.624,235.398l-1.738-0.143c0.029-0.178,0.052-0.351,0.068-0.519l1.729,0.055
							C372.668,234.991,372.649,235.192,372.624,235.398"/>
						<path fill="#A91826" d="M372.682,234.792l-1.729-0.055c0.018-0.186,0.027-0.366,0.028-0.539l1.725-0.056
							C372.705,234.355,372.697,234.572,372.682,234.792"/>
						<path fill="#A61825" d="M372.707,234.142l-1.725,0.056c0-0.009,0-0.018,0-0.026c0-0.012,0-0.024,0-0.037l1.73-0.087
							c-0.002,0.021-0.003,0.042-0.005,0.063C372.707,234.121,372.707,234.131,372.707,234.142"/>
						<path fill="#A91826" d="M372.712,234.047l-1.73,0.087c0-0.095-0.002-0.189-0.006-0.281l1.76-0.275
							C372.731,233.728,372.724,233.884,372.712,234.047"/>
						<path fill="#A61825" d="M372.735,233.579l-1.76,0.275c-0.008-0.185-0.023-0.361-0.046-0.532l1.779-0.555
							C372.732,233.012,372.742,233.281,372.735,233.579"/>
						<path fill="#A31724" d="M372.708,232.767l-1.779,0.555c-0.022-0.169-0.052-0.332-0.089-0.487l1.752-0.737
							C372.645,232.301,372.684,232.522,372.708,232.767"/>
						<path fill="#A01622" d="M372.592,232.098l-1.752,0.737c-0.037-0.156-0.082-0.306-0.133-0.448l1.688-0.85
							C372.473,231.709,372.54,231.894,372.592,232.098"/>
						<path fill="#9E1521" d="M372.395,231.537l-1.688,0.85c-0.054-0.148-0.116-0.29-0.185-0.422l1.588-0.927
							C372.217,231.193,372.313,231.357,372.395,231.537"/>
						<path fill="#9B1420" d="M372.11,231.038l-1.588,0.927c-0.083-0.158-0.176-0.304-0.281-0.44l1.442-1.009
							C371.84,230.683,371.983,230.854,372.11,231.038"/>
						<path fill="#98131F" d="M371.684,230.516l-1.442,1.009c-0.093-0.121-0.194-0.232-0.304-0.335
							c-0.293-0.276-0.627-0.48-1.003-0.611l1.054-1.45c0.452,0.218,0.831,0.551,1.249,0.945
							C371.396,230.222,371.545,230.368,371.684,230.516"/>
						<path fill="#95121E" d="M369.988,229.128l-1.054,1.45c-0.458-0.161-0.977-0.213-1.556-0.157l0.426-1.483
							C368.777,228.766,369.437,228.861,369.988,229.128"/>
						<path fill="#92111D" d="M367.805,228.938l-0.426,1.483c-0.072,0.007-0.145,0.016-0.218,0.026
							c-0.083,0.012-0.167,0.024-0.25,0.039l0.182-1.45c0.108-0.01,0.22-0.017,0.335-0.021
							C367.559,228.984,367.684,228.959,367.805,228.938"/>
						<path fill="#95121E" d="M367.093,229.036l-0.182,1.45c-0.843,0.144-1.633,0.409-2.363,0.787
							c-0.501,0.258-1.012,0.57-1.532,0.937l0.098-1.624c0.098-0.009,0.652-0.298,1.222-0.591
							C365.209,229.542,365.987,229.139,367.093,229.036"/>
						<path fill="#98131F" d="M363.113,230.586l-0.098,1.624c-0.202,0.142-0.404,0.292-0.608,0.45l0.823-2.206
							C363.106,230.551,363.075,230.589,363.113,230.586"/>
						<path fill="#95121E" d="M363.23,230.454l-0.823,2.206c-0.037,0.029-0.074,0.057-0.11,0.086l1.011-2.35
							C363.279,230.417,363.253,230.437,363.23,230.454"/>
						<polyline fill="#92111D" points="363.308,230.396 362.297,232.746 362.283,232.757 363.318,230.389 363.308,230.396 						"/>
						<polyline fill="#90101C" points="363.318,230.389 362.283,232.757 362.27,232.768 363.329,230.38 363.318,230.389 						"/>
						<polyline fill="#8D0F1B" points="363.329,230.38 362.27,232.768 362.256,232.778 363.34,230.372 363.329,230.38 						"/>
						<polyline fill="#8A0D19" points="363.34,230.372 362.256,232.778 362.243,232.789 363.352,230.364 363.34,230.372 						"/>
						<polyline fill="#880C18" points="363.352,230.364 362.243,232.789 362.229,232.8 363.363,230.355 363.352,230.364 						"/>
						<polyline fill="#850B17" points="363.363,230.355 362.229,232.8 362.216,232.811 363.375,230.347 363.363,230.355 						"/>
						<polyline fill="#820915" points="363.375,230.347 362.216,232.811 362.202,232.821 363.388,230.337 363.375,230.347 						"/>
						<polyline fill="#800814" points="363.388,230.337 362.202,232.821 362.188,232.832 363.401,230.329 363.388,230.337 						"/>
						<path fill="#7D0713" d="M363.401,230.329l-1.212,2.503c-0.047,0.038-0.095,0.076-0.142,0.115l1.506-2.726
							C363.496,230.261,363.446,230.296,363.401,230.329"/>
					</g>
				</g>
				<g>
					<polygon fill="#A71825" points="362.526,252.515 360.797,254.153 360.801,252.458 362.525,253.04 					"/>
				</g>
				<g enable-background="new    ">
					<defs>
						<path id="SVGID_5_" enable-background="new    " d="M361.327,230.977c0.145-0.482,0.164-0.776,0.087-1.312
							c-0.004-0.024,0.127-0.131,0.454-0.359L361.327,230.977z"/>
					</defs>
					<clipPath id="SVGID_6_">
						<use xlink:href="#SVGID_5_"  overflow="visible"/>
					</clipPath>
					<g clip-path="url(#SVGID_6_)" enable-background="new    ">
						<path fill="#7D0713" d="M361.58,230.787l-0.166-1.122c-0.003-0.02,0.081-0.092,0.283-0.238l-0.356,1.531
							C361.374,230.925,361.458,230.865,361.58,230.787"/>
						<path fill="#800814" d="M361.341,230.958l0.356-1.531c0.012-0.008,0.023-0.017,0.036-0.026l-0.397,1.562
							C361.338,230.961,361.339,230.959,361.341,230.958"/>
						<polyline fill="#820915" points="361.336,230.963 361.733,229.401 361.738,229.397 361.335,230.964 361.336,230.963 						"/>
						<polyline fill="#850B17" points="361.335,230.964 361.738,229.397 361.744,229.394 361.335,230.964 361.335,230.964 						"/>
						<polyline fill="#880C18" points="361.335,230.964 361.744,229.394 361.749,229.39 361.334,230.965 361.335,230.964 						"/>
						<polyline fill="#8A0D19" points="361.334,230.965 361.749,229.39 361.754,229.386 361.334,230.966 361.334,230.965 						"/>
						<polyline fill="#8D0F1B" points="361.334,230.966 361.754,229.386 361.76,229.382 361.333,230.966 361.334,230.966 						"/>
						<polyline fill="#90101C" points="361.333,230.966 361.76,229.382 361.765,229.378 361.333,230.967 361.333,230.966 						"/>
						<polyline fill="#92111D" points="361.333,230.967 361.765,229.378 361.771,229.374 361.332,230.968 361.333,230.967 						"/>
						<polyline fill="#95121E" points="361.332,230.968 361.771,229.374 361.776,229.37 361.332,230.968 361.332,230.968 						"/>
						<polyline fill="#98131F" points="361.332,230.968 361.776,229.37 361.782,229.366 361.332,230.969 361.332,230.968 						"/>
						<polyline fill="#9B1420" points="361.332,230.969 361.782,229.366 361.788,229.362 361.331,230.97 361.332,230.969 						"/>
						<polyline fill="#9E1521" points="361.331,230.97 361.788,229.362 361.793,229.358 361.331,230.97 361.331,230.97 						"/>
						<polyline fill="#A01622" points="361.331,230.97 361.793,229.358 361.799,229.354 361.33,230.971 361.331,230.97 						"/>
						<polyline fill="#A31724" points="361.33,230.971 361.799,229.354 361.805,229.35 361.33,230.971 361.33,230.971 						"/>
						<polyline fill="#A61825" points="361.33,230.971 361.805,229.35 361.811,229.346 361.329,230.972 361.33,230.971 						"/>
						<polyline fill="#A91826" points="361.329,230.972 361.811,229.346 361.816,229.342 361.329,230.973 361.329,230.972 						"/>
						<polyline fill="#AB1926" points="361.329,230.973 361.816,229.342 361.822,229.338 361.329,230.973 361.329,230.973 						"/>
						<polyline fill="#AE1A27" points="361.329,230.973 361.822,229.338 361.828,229.333 361.329,230.974 361.329,230.973 						"/>
						<polyline fill="#B11B28" points="361.329,230.974 361.828,229.333 361.834,229.33 361.328,230.974 361.329,230.974 						"/>
						<polyline fill="#B31B29" points="361.328,230.974 361.834,229.33 361.84,229.325 361.328,230.975 361.328,230.974 						"/>
						<polyline fill="#B61C2A" points="361.328,230.975 361.84,229.325 361.846,229.321 361.328,230.975 361.328,230.975 						"/>
						<polyline fill="#B91D2B" points="361.328,230.975 361.846,229.321 361.853,229.316 361.328,230.976 361.328,230.975 						"/>
						<polyline fill="#BC1D2C" points="361.328,230.976 361.853,229.316 361.859,229.313 361.327,230.976 361.328,230.976 						"/>
						<polyline fill="#BE1E2D" points="361.327,230.976 361.859,229.313 361.865,229.308 361.327,230.977 361.327,230.976 						"/>
						<polyline fill="#C33F3B" points="361.327,230.977 361.865,229.308 361.869,229.306 361.327,230.977 361.327,230.977 						"/>
					</g>
				</g>
				<g enable-background="new    ">
					<defs>
						<path id="SVGID_7_" enable-background="new    " d="M372.18,224.963l1.154,0.628c-1.528-0.832-3.392-1.092-5.594-0.783
							l-1.154-0.628C368.789,223.871,370.652,224.131,372.18,224.963z"/>
					</defs>
					<clipPath id="SVGID_8_">
						<use xlink:href="#SVGID_7_"  overflow="visible"/>
					</clipPath>
					<g clip-path="url(#SVGID_8_)" enable-background="new    ">
						<path fill="#90101C" d="M367.74,224.808l-1.154-0.628c1.474-0.207,2.795-0.159,3.966,0.145l1.154,0.628
							C370.535,224.649,369.213,224.601,367.74,224.808"/>
						<path fill="#8D0F1B" d="M371.706,224.953l-1.154-0.628c0.485,0.125,0.944,0.295,1.377,0.508l1.154,0.628
							C372.65,225.248,372.191,225.078,371.706,224.953"/>
						<path fill="#8A0D19" d="M373.083,225.46l-1.154-0.628c0.084,0.042,0.168,0.085,0.251,0.13l1.154,0.628
							C373.251,225.545,373.167,225.502,373.083,225.46"/>
					</g>
				</g>
				<g enable-background="new    ">
					<defs>
						<path id="SVGID_9_" enable-background="new    " d="M368.001,226.529l-0.262-1.721c2.731-0.384,4.94,0.109,6.635,1.479
							c1.688,1.371,2.532,3.542,2.526,6.526c-0.004,2.058-0.697,4.472-2.071,7.25c-1.367,2.768-2.893,5.256-4.563,7.461
							l-3.048,2.187c3.83-5.06,5.273-7.603,6.608-10.108c0.968-2.339,1.876-4.713,1.878-6.44c-0.163-1.923-0.697-4.327-2.032-5.411
							C372.273,226.619,369.936,226.447,368.001,226.529z"/>
					</defs>
					<clipPath id="SVGID_10_">
						<use xlink:href="#SVGID_9_"  overflow="visible"/>
					</clipPath>
					<g clip-path="url(#SVGID_10_)" enable-background="new    ">
						<path fill="#CE7060" d="M368.001,226.529l-0.262-1.721c0.005-0.001,0.011-0.001,0.016-0.002l0.257,1.723
							C368.009,226.528,368.005,226.529,368.001,226.529"/>
						<path fill="#CD6C5D" d="M368.013,226.528l-0.257-1.723c0.195-0.027,0.388-0.05,0.577-0.068l0.101,1.778
							C368.292,226.518,368.151,226.522,368.013,226.528"/>
						<path fill="#CC6859" d="M368.434,226.515l-0.101-1.778c0.208-0.02,0.413-0.034,0.614-0.043l-0.042,1.818
							C368.747,226.511,368.589,226.512,368.434,226.515"/>
						<path fill="#CB6455" d="M368.905,226.512l0.042-1.818c0.224-0.01,0.443-0.014,0.659-0.011l-0.169,1.84
							C369.258,226.517,369.081,226.513,368.905,226.512"/>
						<path fill="#CA5F51" d="M369.437,226.523l0.169-1.84c0.231,0.003,0.458,0.014,0.681,0.033l-0.275,1.841
							C369.82,226.542,369.628,226.531,369.437,226.523"/>
						<path fill="#C9594D" d="M370.012,226.557l0.275-1.841c0.237,0.02,0.469,0.048,0.696,0.085l-0.361,1.82
							C370.419,226.595,370.216,226.573,370.012,226.557"/>
						<path fill="#C75348" d="M370.622,226.621l0.361-1.82c0.23,0.038,0.456,0.084,0.675,0.14l-0.428,1.78
							C371.03,226.681,370.827,226.648,370.622,226.621"/>
						<path fill="#C54B42" d="M371.23,226.72l0.428-1.78c0.218,0.055,0.431,0.119,0.638,0.191l-0.481,1.725
							C371.625,226.804,371.429,226.759,371.23,226.72"/>
						<path fill="#C33F3B" d="M371.815,226.856l0.481-1.725c0.205,0.072,0.404,0.152,0.599,0.24l-0.529,1.66
							C372.188,226.966,372.003,226.908,371.815,226.856"/>
						<path fill="#BE1E2D" d="M372.366,227.032l0.529-1.66c0.194,0.088,0.383,0.186,0.568,0.291l-0.582,1.59
							C372.716,227.17,372.543,227.098,372.366,227.032"/>
						<path fill="#BC1D2C" d="M372.881,227.252l0.582-1.59c0.185,0.106,0.365,0.221,0.54,0.344l-0.645,1.516
							C373.207,227.423,373.048,227.333,372.881,227.252"/>
						<path fill="#B91D2B" d="M373.358,227.522l0.645-1.516c0.127,0.089,0.251,0.183,0.372,0.281
							c0.042,0.034,0.084,0.069,0.125,0.104l-0.729,1.443c-0.032-0.028-0.065-0.057-0.098-0.083
							C373.573,227.669,373.468,227.593,373.358,227.522"/>
						<path fill="#B61C2A" d="M373.771,227.834l0.729-1.443c0.163,0.14,0.318,0.288,0.464,0.443l-0.831,1.377
							C374.021,228.074,373.9,227.948,373.771,227.834"/>
						<path fill="#B31B29" d="M374.134,228.211l0.831-1.377c0.173,0.184,0.335,0.379,0.485,0.586l-0.943,1.321
							C374.392,228.551,374.268,228.374,374.134,228.211"/>
						<path fill="#B11B28" d="M374.506,228.741l0.943-1.321c0.182,0.25,0.347,0.516,0.495,0.799l-1.064,1.261
							C374.77,229.219,374.645,228.971,374.506,228.741"/>
						<path fill="#AE1A27" d="M374.881,229.479l1.064-1.261c0.179,0.342,0.333,0.708,0.462,1.099l-1.175,1.156
							C375.132,230.129,375.016,229.795,374.881,229.479"/>
						<path fill="#AB1926" d="M375.231,230.473l1.175-1.156c0.148,0.448,0.263,0.928,0.345,1.439l-1.24,0.924
							C375.438,231.275,375.346,230.868,375.231,230.473"/>
						<path fill="#A91826" d="M375.512,231.681l1.24-0.924c0.083,0.521,0.131,1.073,0.146,1.659l-1.216,0.484
							C375.642,232.505,375.586,232.094,375.512,231.681"/>
						<path fill="#A61825" d="M375.681,232.9l1.216-0.484c0.003,0.13,0.004,0.263,0.004,0.396c0,0.17-0.005,0.344-0.015,0.519
							l-1.199,0.273c0.012-0.152,0.018-0.3,0.019-0.443C375.698,233.075,375.69,232.988,375.681,232.9"/>
						<path fill="#A31724" d="M375.687,233.604l1.199-0.273c-0.028,0.499-0.094,1.017-0.198,1.555l-1.233,0.1
							C375.572,234.499,375.652,234.035,375.687,233.604"/>
						<path fill="#A01622" d="M375.456,234.987l1.233-0.1c-0.18,0.929-0.473,1.917-0.879,2.965l-1.214-0.174
							C374.95,236.74,375.255,235.828,375.456,234.987"/>
						<path fill="#9E1521" d="M374.596,237.678l1.214,0.174c-0.275,0.709-0.602,1.446-0.979,2.21
							c-0.059,0.119-0.118,0.237-0.177,0.355l-0.998-0.492c0.058-0.108,0.116-0.215,0.173-0.323
							C374.094,238.958,374.356,238.313,374.596,237.678"/>
						<path fill="#9B1420" d="M373.655,239.925l0.998,0.492c-1.275,2.534-2.685,4.83-4.219,6.884l-2.839,1.909
							C370.988,244.691,372.409,242.247,373.655,239.925"/>
						<path fill="#98131F" d="M367.595,249.21l2.839-1.909c-0.055,0.075-0.111,0.148-0.167,0.222l-3.048,2.187
							C367.347,249.541,367.473,249.374,367.595,249.21"/>
					</g>
				</g>
				<g>
					<polygon fill="#A61725" points="363.552,230.221 362.046,232.947 361.577,227.411 363.379,228.183 					"/>
				</g>
				<g>
					<path fill="#AD1A27" d="M368.001,226.529c1.934-0.082,4.272,0.09,5.672,1.222c1.335,1.084,1.87,3.488,2.032,5.411
						c-0.001,1.728-0.91,4.102-1.878,6.44c-1.335,2.505-2.779,5.048-6.608,10.108l9.787-1.376l-0.004,2.146l-14.476,2.035
						l-0.001,0.525c2.624-3.14,4.969-6.656,6.98-10.124c2.423-3.769,3.19-6.486,3.201-8.806c0.181-2.296-0.467-3.093-1.47-4.037
						c-0.993-0.934-1.764-1.526-3.81-1.059c-1.29,0.046-2.132,0.483-3.093,0.981c-0.92,0.473-1.799,0.935-0.783,0.226l-0.173-2.039
						c-0.051,0.041,0.939-0.398,1.673-0.839C365.933,226.95,367.065,226.781,368.001,226.529z"/>
				</g>
				<g enable-background="new    ">
					<defs>
						<path id="SVGID_11_" enable-background="new    " d="M363.277,228.139l0.102,0.043c-0.002,0.001-0.002,0.002-0.002,0.002
							C363.348,228.171,363.308,228.153,363.277,228.139z"/>
					</defs>
					<clipPath id="SVGID_12_">
						<use xlink:href="#SVGID_11_"  overflow="visible"/>
					</clipPath>
					<g clip-path="url(#SVGID_12_)" enable-background="new    ">
						<polyline fill="#D27D6C" points="363.379,228.183 363.277,228.139 363.28,228.138 363.377,228.185 363.379,228.183 						"/>
						<polyline fill="#D3806F" points="363.377,228.185 363.28,228.138 363.281,228.138 363.377,228.185 363.377,228.185 						"/>
					</g>
				</g>
				<g enable-background="new    ">
					<defs>
						<path id="SVGID_13_" enable-background="new    " d="M363.377,228.185c-0.592-0.277-1.2-0.517-1.801-0.774
							c0.858-0.673,1.796-1.229,2.822-1.676c1.018-0.454,2.131-0.757,3.341-0.927l0.262,1.721c-0.936,0.252-2.068,0.421-2.949,0.814
							C364.343,227.769,363.395,228.193,363.377,228.185z"/>
					</defs>
					<clipPath id="SVGID_14_">
						<use xlink:href="#SVGID_13_"  overflow="visible"/>
					</clipPath>
					<g clip-path="url(#SVGID_14_)" enable-background="new    ">
						<path fill="#D27D6C" d="M363.379,228.183l-1.803-0.771c0.028-0.021,0.055-0.043,0.083-0.064l1.718,0.838
							C363.377,228.185,363.377,228.184,363.379,228.183"/>
						<path fill="#D3806F" d="M363.377,228.185l-1.718-0.838c0.09-0.07,0.182-0.138,0.274-0.205l1.48,1.032
							C363.392,228.182,363.379,228.186,363.377,228.185"/>
						<path fill="#D38372" d="M363.414,228.173l-1.48-1.032c0.101-0.074,0.203-0.146,0.306-0.216l1.278,1.205
							C363.473,228.149,363.438,228.164,363.414,228.173"/>
						<path fill="#D3806F" d="M363.518,228.13l-1.278-1.205c0.213-0.146,0.432-0.285,0.654-0.418l1.006,1.447
							C363.744,228.028,363.61,228.089,363.518,228.13"/>
						<path fill="#D27D6C" d="M363.899,227.954l-1.006-1.447c0.425-0.253,0.866-0.484,1.326-0.692l0.702,1.605
							C364.578,227.619,364.197,227.812,363.899,227.954"/>
						<path fill="#D3806F" d="M364.921,227.42l-0.702-1.605c0.059-0.027,0.119-0.054,0.179-0.08
							c0.002-0.001,0.004-0.002,0.006-0.003l0.653,1.608c-0.002,0.001-0.004,0.001-0.006,0.002
							C365.01,227.369,364.966,227.395,364.921,227.42"/>
						<path fill="#D27D6C" d="M365.058,227.341l-0.653-1.608c0.187-0.083,0.377-0.161,0.57-0.234l0.591,1.647
							C365.39,227.205,365.22,227.269,365.058,227.341"/>
						<path fill="#D17A69" d="M365.566,227.146l-0.591-1.647c0.172-0.065,0.348-0.126,0.525-0.184l0.549,1.686
							C365.885,227.045,365.723,227.093,365.566,227.146"/>
						<path fill="#D07766" d="M366.049,227l-0.549-1.686c0.226-0.073,0.456-0.14,0.69-0.201l0.493,1.728
							C366.47,226.891,366.257,226.943,366.049,227"/>
						<path fill="#CF7363" d="M366.683,226.841l-0.493-1.728c0.498-0.129,1.014-0.23,1.549-0.305l0.262,1.721
							C367.587,226.641,367.135,226.736,366.683,226.841"/>
					</g>
				</g>
				<g enable-background="new    ">
					<defs>
						<path id="SVGID_15_" enable-background="new    " d="M361.577,227.411l-1.154-0.628c0.858-0.673,1.796-1.229,2.822-1.676
							c1.018-0.454,2.131-0.757,3.341-0.927l1.154,0.628c-1.21,0.17-2.324,0.473-3.341,0.927
							C363.373,226.183,362.435,226.738,361.577,227.411z"/>
					</defs>
					<clipPath id="SVGID_16_">
						<use xlink:href="#SVGID_15_"  overflow="visible"/>
					</clipPath>
					<g clip-path="url(#SVGID_16_)" enable-background="new    ">
						<path fill="#8A0D19" d="M361.577,227.411l-1.154-0.628c0.198-0.155,0.4-0.304,0.606-0.447l1.154,0.627
							C361.977,227.107,361.774,227.256,361.577,227.411"/>
						<path fill="#8D0F1B" d="M362.183,226.964l-1.154-0.627c0.579-0.401,1.192-0.753,1.842-1.06l1.154,0.628
							C363.375,226.211,362.762,226.563,362.183,226.964"/>
						<path fill="#90101C" d="M364.025,225.905l-1.154-0.628c0.123-0.058,0.248-0.115,0.374-0.169
							c1.018-0.454,2.131-0.757,3.341-0.927l1.154,0.628c-1.21,0.17-2.324,0.473-3.341,0.927
							C364.272,225.79,364.148,225.847,364.025,225.905"/>
					</g>
				</g>
				<g>
					<polygon fill="#7B0511" points="362.046,232.947 360.892,232.319 360.422,226.783 361.577,227.411 					"/>
				</g>
			</g>
		</g>
	</g>
</g>
</svg>
